<?xml version="1.0" encoding="UTF-8"?>
<!DOCTYPE svg PUBLIC "-//W3C//DTD SVG 1.1//EN" "http://www.w3.org/Graphics/SVG/1.1/DTD/svg11.dtd">
<svg xmlns="http://www.w3.org/2000/svg" version="1.1" width="128px" height="128px" style="shape-rendering:geometricPrecision; text-rendering:geometricPrecision; image-rendering:optimizeQuality; fill-rule:evenodd; clip-rule:evenodd" xmlns:xlink="http://www.w3.org/1999/xlink">
<g><path style="opacity:1" fill="#fdfcfc" d="M 97.5,-0.5 C 107.5,-0.5 117.5,-0.5 127.5,-0.5C 127.5,16.5 127.5,33.5 127.5,50.5C 126.167,50.5 124.833,50.5 123.5,50.5C 121.393,49.5318 119.059,49.1984 116.5,49.5C 110.62,50.3075 104.953,51.6409 99.5,53.5C 98.5084,53.6716 97.8417,53.3382 97.5,52.5C 97.5,44.8333 97.5,37.1667 97.5,29.5C 97.5,27.1667 97.5,24.8333 97.5,22.5C 97.5,15.5 97.5,8.5 97.5,1.5C 97.5,0.833333 97.5,0.166667 97.5,-0.5 Z"/></g>
<g><path style="opacity:1" fill="#c2b2a5" d="M 43.5,-0.5 C 45.8333,-0.5 48.1667,-0.5 50.5,-0.5C 50.7214,2.27884 50.388,4.94551 49.5,7.5C 47.5,7.5 45.5,7.5 43.5,7.5C 43.5,4.83333 43.5,2.16667 43.5,-0.5 Z"/></g>
<g><path style="opacity:1" fill="#1b1612" d="M 95.5,-0.5 C 96.1667,-0.5 96.8333,-0.5 97.5,-0.5C 97.5,0.166667 97.5,0.833333 97.5,1.5C 96.5269,3.9479 96.1936,6.61456 96.5,9.5C 95.5222,9.18897 94.8555,8.5223 94.5,7.5C 95.3928,4.91585 95.7261,2.24919 95.5,-0.5 Z"/></g>
<g><path style="opacity:1" fill="#3d3229" d="M 3.5,-0.5 C 6.16667,-0.5 8.83333,-0.5 11.5,-0.5C 10.7682,2.42734 10.9349,5.42734 12,8.5C 12.6543,7.30441 13.1543,7.30441 13.5,8.5C 13.0688,9.29349 12.7355,10.1268 12.5,11C 14.0689,15.1152 15.4023,19.2818 16.5,23.5C 15.2101,22.9423 14.3768,21.9423 14,20.5C 12.4646,16.2272 11.1312,11.8938 10,7.5C 9.58309,6.24402 8.74975,5.57735 7.5,5.5C 7.48269,3.97189 6.81602,3.47189 5.5,4C 4.66337,5.01127 4.33003,6.17793 4.5,7.5C 3.69808,8.95161 3.19808,10.6183 3,12.5C 2.50335,10.1902 2.33669,7.85684 2.5,5.5C 3.34141,3.6208 3.67474,1.6208 3.5,-0.5 Z"/></g>
<g><path style="opacity:1" fill="#e2dad4" d="M 28.5,-0.5 C 29.5,-0.5 30.5,-0.5 31.5,-0.5C 30.3636,4.98527 30.3636,10.3186 31.5,15.5C 32.9931,16.3121 33.6598,17.6455 33.5,19.5C 33.4805,20.7261 33.1471,21.7261 32.5,22.5C 30.4357,18.5694 29.1023,14.2361 28.5,9.5C 27.8333,9.83333 27.1667,10.1667 26.5,10.5C 25.5078,14.7828 25.1744,19.1161 25.5,23.5C 24.4625,22.0697 23.7959,20.403 23.5,18.5C 23.5324,12.8114 23.8658,7.14475 24.5,1.5C 26.4832,1.84316 27.8166,1.17649 28.5,-0.5 Z"/></g>
<g><path style="opacity:1" fill="#88715e" d="M 52.5,-0.5 C 53.5,-0.5 54.5,-0.5 55.5,-0.5C 54.6979,6.80418 54.3646,14.1375 54.5,21.5C 54.5,22.1667 54.1667,22.5 53.5,22.5C 53.9227,20.2188 53.256,18.5521 51.5,17.5C 51.4255,11.4707 51.7588,5.47073 52.5,-0.5 Z"/></g>
<g><path style="opacity:1" fill="#f7f4f3" d="M 68.5,-0.5 C 74.1667,-0.5 79.8333,-0.5 85.5,-0.5C 85.9018,4.10262 85.9018,8.76929 85.5,13.5C 84.776,15.2184 84.1094,17.0517 83.5,19C 79.8484,19.4986 76.1817,19.6653 72.5,19.5C 71.8333,19.1667 71.1667,18.8333 70.5,18.5C 70.5,17.8333 70.1667,17.5 69.5,17.5C 68.5447,11.5907 68.2114,5.59074 68.5,-0.5 Z"/></g>
<g><path style="opacity:1" fill="#cdbfb4" d="M -0.5,-0.5 C 0.833333,-0.5 2.16667,-0.5 3.5,-0.5C 3.67474,1.6208 3.34141,3.6208 2.5,5.5C 1.5,6.16667 0.5,6.83333 -0.5,7.5C -0.5,4.83333 -0.5,2.16667 -0.5,-0.5 Z"/></g>
<g><path style="opacity:1" fill="#4f4034" d="M 55.5,-0.5 C 59.8333,-0.5 64.1667,-0.5 68.5,-0.5C 68.2114,5.59074 68.5447,11.5907 69.5,17.5C 67.4086,17.6816 65.4086,17.3482 63.5,16.5C 60.6339,18.4325 57.6339,20.0991 54.5,21.5C 54.3646,14.1375 54.6979,6.80418 55.5,-0.5 Z"/></g>
<g><path style="opacity:1" fill="#655243" d="M 11.5,-0.5 C 15.1667,-0.5 18.8333,-0.5 22.5,-0.5C 21.3559,3.35963 20.6893,7.35963 20.5,11.5C 19.7784,11.0825 19.2784,10.4158 19,9.5C 18.6667,10.5 18.3333,11.5 18,12.5C 17.2754,10.0506 16.2754,7.71728 15,5.5C 15.3946,11.2975 17.2279,16.6308 20.5,21.5C 19.5206,24.6248 19.1872,27.9581 19.5,31.5C 18.7671,29.7056 17.7671,28.0389 16.5,26.5C 17.2389,26.631 17.9056,26.4643 18.5,26C 17.6195,25.2917 16.9528,24.4584 16.5,23.5C 15.4023,19.2818 14.0689,15.1152 12.5,11C 12.7355,10.1268 13.0688,9.29349 13.5,8.5C 13.1543,7.30441 12.6543,7.30441 12,8.5C 10.9349,5.42734 10.7682,2.42734 11.5,-0.5 Z"/></g>
<g><path style="opacity:1" fill="#534438" d="M 31.5,-0.5 C 35.5,-0.5 39.5,-0.5 43.5,-0.5C 43.5,2.16667 43.5,4.83333 43.5,7.5C 45.5,7.5 47.5,7.5 49.5,7.5C 46.5364,8.76384 43.3697,9.76384 40,10.5C 38.6349,10.1557 37.4682,9.48907 36.5,8.5C 34.9579,9.74684 33.4579,9.74684 32,8.5C 31.5034,10.8098 31.3367,13.1432 31.5,15.5C 30.3636,10.3186 30.3636,4.98527 31.5,-0.5 Z"/></g>
<g><path style="opacity:1" fill="#493c31" d="M 20.5,11.5 C 21.2638,14.0177 22.2638,16.351 23.5,18.5C 23.7959,20.403 24.4625,22.0697 25.5,23.5C 26.182,27.1977 27.682,30.531 30,33.5C 30.21,31.9419 30.71,30.6085 31.5,29.5C 31.3573,31.2624 31.6906,32.9291 32.5,34.5C 31.1468,35.5237 30.4802,36.857 30.5,38.5C 30.0233,35.9748 28.6899,33.9748 26.5,32.5C 25.8333,31.5 25.1667,30.5 24.5,29.5C 23.1667,26.8333 21.8333,24.1667 20.5,21.5C 17.2279,16.6308 15.3946,11.2975 15,5.5C 16.2754,7.71728 17.2754,10.0506 18,12.5C 18.3333,11.5 18.6667,10.5 19,9.5C 19.2784,10.4158 19.7784,11.0825 20.5,11.5 Z"/></g>
<g><path style="opacity:1" fill="#f7f4f3" d="M 32.5,22.5 C 32.0074,24.8056 31.6741,27.139 31.5,29.5C 30.71,30.6085 30.21,31.9419 30,33.5C 27.682,30.531 26.182,27.1977 25.5,23.5C 25.1744,19.1161 25.5078,14.7828 26.5,10.5C 27.1667,10.1667 27.8333,9.83333 28.5,9.5C 29.1023,14.2361 30.4357,18.5694 32.5,22.5 Z"/></g>
<g><path style="opacity:1" fill="#c6b7aa" d="M 7.5,5.5 C 5.90837,8.96641 5.24171,12.6331 5.5,16.5C 4.52333,13.7131 4.19,10.7131 4.5,7.5C 4.33003,6.17793 4.66337,5.01127 5.5,4C 6.81602,3.47189 7.48269,3.97189 7.5,5.5 Z"/></g>
<g><path style="opacity:1" fill="#bfafa2" d="M 22.5,-0.5 C 24.5,-0.5 26.5,-0.5 28.5,-0.5C 27.8166,1.17649 26.4832,1.84316 24.5,1.5C 23.8658,7.14475 23.5324,12.8114 23.5,18.5C 22.2638,16.351 21.2638,14.0177 20.5,11.5C 20.6893,7.35963 21.3559,3.35963 22.5,-0.5 Z"/></g>
<g><path style="opacity:1" fill="#b8a494" d="M 97.5,1.5 C 97.5,8.5 97.5,15.5 97.5,22.5C 96.5,22.5 95.5,22.5 94.5,22.5C 94.3345,18.4862 94.5012,14.4862 95,10.5C 96.1068,11.7119 96.6068,11.3786 96.5,9.5C 96.1936,6.61456 96.5269,3.9479 97.5,1.5 Z"/></g>
<g><path style="opacity:1" fill="#5f4d3f" d="M 16.5,26.5 C 15.8333,26.5 15.5,26.8333 15.5,27.5C 14.1779,27.67 13.0113,27.3366 12,26.5C 11.7679,27.7375 11.2679,28.7375 10.5,29.5C 9.03963,23.9516 8.2063,18.285 8,12.5C 7.34569,13.6956 6.84569,13.6956 6.5,12.5C 7.09826,11.2054 7.59826,9.8721 8,8.5C 9.42154,15.3138 12.2549,21.3138 16.5,26.5 Z"/></g>
<g><path style="opacity:1" fill="#b09a89" d="M 85.5,13.5 C 85.6621,15.5273 85.4955,17.5273 85,19.5C 84.6174,20.056 84.1174,20.3893 83.5,20.5C 79.6286,20.815 75.9619,20.4816 72.5,19.5C 76.1817,19.6653 79.8484,19.4986 83.5,19C 84.1094,17.0517 84.776,15.2184 85.5,13.5 Z"/></g>
<g><path style="opacity:1" fill="#7b6552" d="M 85.5,-0.5 C 88.8333,-0.5 92.1667,-0.5 95.5,-0.5C 95.7261,2.24919 95.3928,4.91585 94.5,7.5C 94.8555,8.5223 95.5222,9.18897 96.5,9.5C 96.6068,11.3786 96.1068,11.7119 95,10.5C 94.5012,14.4862 94.3345,18.4862 94.5,22.5C 93.8333,20.1667 93.1667,17.8333 92.5,15.5C 93.1359,12.8938 93.1359,10.3938 92.5,8C 88.086,7.03465 86.4194,8.86799 87.5,13.5C 86.4233,18.4286 88.09,20.0952 92.5,18.5C 91.6274,22.7685 91.2941,27.1018 91.5,31.5C 88.9455,30.612 86.2788,30.2786 83.5,30.5C 83.5,27.1667 83.5,23.8333 83.5,20.5C 84.1174,20.3893 84.6174,20.056 85,19.5C 85.4955,17.5273 85.6621,15.5273 85.5,13.5C 85.9018,8.76929 85.9018,4.10262 85.5,-0.5 Z"/></g>
<g><path style="opacity:1" fill="#f3efed" d="M 92.5,15.5 C 92.5,16.5 92.5,17.5 92.5,18.5C 88.09,20.0952 86.4233,18.4286 87.5,13.5C 86.4194,8.86799 88.086,7.03465 92.5,8C 93.1359,10.3938 93.1359,12.8938 92.5,15.5 Z"/></g>
<g><path style="opacity:1" fill="#564639" d="M 70.5,18.5 C 71.1667,18.8333 71.8333,19.1667 72.5,19.5C 75.9619,20.4816 79.6286,20.815 83.5,20.5C 83.5,23.8333 83.5,27.1667 83.5,30.5C 81.5,30.5 79.5,30.5 77.5,30.5C 77.81,33.7131 77.4767,36.7131 76.5,39.5C 76.665,36.1501 76.4983,32.8168 76,29.5C 74.6073,25.5296 72.774,21.8629 70.5,18.5 Z"/></g>
<g><path style="opacity:1" fill="#3a3027" d="M 50.5,-0.5 C 51.1667,-0.5 51.8333,-0.5 52.5,-0.5C 51.7588,5.47073 51.4255,11.4707 51.5,17.5C 51.5,18.1667 51.1667,18.5 50.5,18.5C 48.139,18.3259 45.8056,17.9926 43.5,17.5C 43.8467,21.0958 43.18,24.4291 41.5,27.5C 43.7917,30.4212 45.2917,33.7545 46,37.5C 46.4994,42.8229 46.666,48.1563 46.5,53.5C 44.0731,54.9738 41.7398,54.8071 39.5,53C 37.6024,49.379 35.1024,46.2123 32,43.5C 31.3923,41.8455 30.8923,40.1789 30.5,38.5C 30.4802,36.857 31.1468,35.5237 32.5,34.5C 31.6906,32.9291 31.3573,31.2624 31.5,29.5C 31.6741,27.139 32.0074,24.8056 32.5,22.5C 33.1471,21.7261 33.4805,20.7261 33.5,19.5C 33.6598,17.6455 32.9931,16.3121 31.5,15.5C 31.3367,13.1432 31.5034,10.8098 32,8.5C 33.4579,9.74684 34.9579,9.74684 36.5,8.5C 37.4682,9.48907 38.6349,10.1557 40,10.5C 43.3697,9.76384 46.5364,8.76384 49.5,7.5C 50.388,4.94551 50.7214,2.27884 50.5,-0.5 Z"/></g>
<g><path style="opacity:1" fill="#7e6755" d="M 2.5,5.5 C 2.33669,7.85684 2.50335,10.1902 3,12.5C 3.19808,10.6183 3.69808,8.95161 4.5,7.5C 4.19,10.7131 4.52333,13.7131 5.5,16.5C 6.09269,19.6763 7.09269,22.8429 8.5,26C 7.92214,27.8114 7.42214,29.6447 7,31.5C 6.66667,30.8333 6.33333,30.1667 6,29.5C 5.50029,37.4931 5.33362,45.4931 5.5,53.5C 9.34936,53.632 12.8494,54.632 16,56.5C 16.6667,51.1667 16.6667,45.8333 16,40.5C 15.1667,39 14,37.8333 12.5,37C 13.428,36.6121 14.0946,35.9454 14.5,35C 12.8606,33.3593 11.5273,31.526 10.5,29.5C 11.2679,28.7375 11.7679,27.7375 12,26.5C 13.0113,27.3366 14.1779,27.67 15.5,27.5C 15.2779,31.8424 16.6112,35.5091 19.5,38.5C 19.1667,39.1667 18.8333,39.8333 18.5,40.5C 17.1747,46.2343 17.1747,52.0677 18.5,58C 12.1444,58.5935 5.8111,58.4269 -0.5,57.5C -0.5,56.8333 -0.5,56.1667 -0.5,55.5C 1.16667,55.5 2.83333,55.5 4.5,55.5C 4.5,46.5 4.5,37.5 4.5,28.5C 2.83333,28.5 1.16667,28.5 -0.5,28.5C -0.5,21.5 -0.5,14.5 -0.5,7.5C 0.5,6.83333 1.5,6.16667 2.5,5.5 Z"/></g>
<g><path style="opacity:1" fill="#b5a090" d="M 20.5,21.5 C 21.8333,24.1667 23.1667,26.8333 24.5,29.5C 23.8826,29.3893 23.3826,29.056 23,28.5C 22.1816,31.1071 21.6816,33.7737 21.5,36.5C 21.7613,43.7431 21.7613,51.0764 21.5,58.5C 20.6728,53.0149 20.1728,47.3482 20,41.5C 19.6174,40.944 19.1174,40.6107 18.5,40.5C 18.8333,39.8333 19.1667,39.1667 19.5,38.5C 19.5,36.1667 19.5,33.8333 19.5,31.5C 19.1872,27.9581 19.5206,24.6248 20.5,21.5 Z"/></g>
<g><path style="opacity:1" fill="#221b16" d="M 69.5,17.5 C 70.1667,17.5 70.5,17.8333 70.5,18.5C 72.774,21.8629 74.6073,25.5296 76,29.5C 76.4983,32.8168 76.665,36.1501 76.5,39.5C 76.5,41.8333 76.5,44.1667 76.5,46.5C 75.7063,49.802 75.0396,53.1353 74.5,56.5C 74.1667,57.1667 73.8333,57.8333 73.5,58.5C 72.7784,58.9175 72.2784,59.5842 72,60.5C 71.586,60.0426 71.086,59.7093 70.5,59.5C 69.1667,61.1667 67.8333,62.8333 66.5,64.5C 65.8165,64.1373 65.1499,63.8039 64.5,63.5C 64.6716,62.5084 64.3382,61.8417 63.5,61.5C 62.1441,59.7301 60.3108,58.3968 58,57.5C 56.6414,54.2764 55.1414,51.2764 53.5,48.5C 50.8725,42.1634 49.8725,35.4967 50.5,28.5C 51.5,26.5 52.5,24.5 53.5,22.5C 54.1667,22.5 54.5,22.1667 54.5,21.5C 57.6339,20.0991 60.6339,18.4325 63.5,16.5C 65.4086,17.3482 67.4086,17.6816 69.5,17.5 Z"/></g>
<g><path style="opacity:1" fill="#1d1815" d="M 16.5,26.5 C 17.7671,28.0389 18.7671,29.7056 19.5,31.5C 19.5,33.8333 19.5,36.1667 19.5,38.5C 16.6112,35.5091 15.2779,31.8424 15.5,27.5C 15.5,26.8333 15.8333,26.5 16.5,26.5 Z"/></g>
<g><path style="opacity:1" fill="#f7f5f3" d="M 83.5,30.5 C 84.1171,35.2695 84.7838,39.9362 85.5,44.5C 85.8182,49.0323 85.4849,53.3656 84.5,57.5C 81.0412,57.5313 77.7079,58.198 74.5,59.5C 73.8933,59.3764 73.56,59.0431 73.5,58.5C 73.8333,57.8333 74.1667,57.1667 74.5,56.5C 77.3294,53.5111 77.9961,50.1778 76.5,46.5C 76.5,44.1667 76.5,41.8333 76.5,39.5C 77.4767,36.7131 77.81,33.7131 77.5,30.5C 79.5,30.5 81.5,30.5 83.5,30.5 Z"/></g>
<g><path style="opacity:1" fill="#f5f2f0" d="M 51.5,17.5 C 53.256,18.5521 53.9227,20.2188 53.5,22.5C 52.5,24.5 51.5,26.5 50.5,28.5C 49.3673,39.3413 49.3673,50.3413 50.5,61.5C 41.8282,60.8775 33.1615,60.2108 24.5,59.5C 24.3336,50.8269 24.5002,42.1603 25,33.5C 25.3826,32.944 25.8826,32.6107 26.5,32.5C 28.6899,33.9748 30.0233,35.9748 30.5,38.5C 30.8923,40.1789 31.3923,41.8455 32,43.5C 35.1024,46.2123 37.6024,49.379 39.5,53C 41.7398,54.8071 44.0731,54.9738 46.5,53.5C 47.9655,42.239 47.6322,30.9057 45.5,19.5C 47.4147,19.7845 49.0813,19.4511 50.5,18.5C 51.1667,18.5 51.5,18.1667 51.5,17.5 Z"/></g>
<g><path style="opacity:1" fill="#715d4c" d="M 50.5,18.5 C 49.0813,19.4511 47.4147,19.7845 45.5,19.5C 47.6322,30.9057 47.9655,42.239 46.5,53.5C 46.666,48.1563 46.4994,42.8229 46,37.5C 45.2917,33.7545 43.7917,30.4212 41.5,27.5C 43.18,24.4291 43.8467,21.0958 43.5,17.5C 45.8056,17.9926 48.139,18.3259 50.5,18.5 Z"/></g>
<g><path style="opacity:1" fill="#c1b0a2" d="M 83.5,30.5 C 86.2788,30.2786 88.9455,30.612 91.5,31.5C 91.5,31.8333 91.5,32.1667 91.5,32.5C 90.0254,35.3259 88.6921,38.3259 87.5,41.5C 85.9519,41.8212 85.2852,42.8212 85.5,44.5C 84.7838,39.9362 84.1171,35.2695 83.5,30.5 Z"/></g>
<g><path style="opacity:1" fill="#f2eeeb" d="M 91.5,32.5 C 92.9278,39.6197 93.5945,46.953 93.5,54.5C 91.9582,55.3007 90.2915,55.634 88.5,55.5C 87.559,50.9296 87.2256,46.263 87.5,41.5C 88.6921,38.3259 90.0254,35.3259 91.5,32.5 Z"/></g>
<g><path style="opacity:1" fill="#a5907f" d="M 97.5,29.5 C 97.5,37.1667 97.5,44.8333 97.5,52.5C 97.1667,52.5 96.8333,52.5 96.5,52.5C 96.666,47.1563 96.4994,41.8229 96,36.5C 95.7508,37.624 95.2508,38.624 94.5,39.5C 93.1667,34.5 93.1667,29.5 94.5,24.5C 95.3249,26.3596 96.3249,28.0262 97.5,29.5 Z"/></g>
<g><path style="opacity:1" fill="#d0c3b8" d="M 24.5,29.5 C 25.1667,30.5 25.8333,31.5 26.5,32.5C 25.8826,32.6107 25.3826,32.944 25,33.5C 24.5002,42.1603 24.3336,50.8269 24.5,59.5C 23.209,59.7373 22.209,59.404 21.5,58.5C 21.7613,51.0764 21.7613,43.7431 21.5,36.5C 21.6816,33.7737 22.1816,31.1071 23,28.5C 23.3826,29.056 23.8826,29.3893 24.5,29.5 Z"/></g>
<g><path style="opacity:1" fill="#a38b77" d="M 7.5,5.5 C 8.74975,5.57735 9.58309,6.24402 10,7.5C 11.1312,11.8938 12.4646,16.2272 14,20.5C 14.3768,21.9423 15.2101,22.9423 16.5,23.5C 16.9528,24.4584 17.6195,25.2917 18.5,26C 17.9056,26.4643 17.2389,26.631 16.5,26.5C 12.2549,21.3138 9.42154,15.3138 8,8.5C 7.59826,9.8721 7.09826,11.2054 6.5,12.5C 6.84569,13.6956 7.34569,13.6956 8,12.5C 8.2063,18.285 9.03963,23.9516 10.5,29.5C 11.5273,31.526 12.8606,33.3593 14.5,35C 14.0946,35.9454 13.428,36.6121 12.5,37C 14,37.8333 15.1667,39 16,40.5C 16.6667,45.8333 16.6667,51.1667 16,56.5C 12.8494,54.632 9.34936,53.632 5.5,53.5C 5.33362,45.4931 5.50029,37.4931 6,29.5C 6.33333,30.1667 6.66667,30.8333 7,31.5C 7.42214,29.6447 7.92214,27.8114 8.5,26C 7.09269,22.8429 6.09269,19.6763 5.5,16.5C 5.24171,12.6331 5.90837,8.96641 7.5,5.5 Z"/></g>
<g><path style="opacity:1" fill="#897564" d="M 76.5,46.5 C 77.9961,50.1778 77.3294,53.5111 74.5,56.5C 75.0396,53.1353 75.7063,49.802 76.5,46.5 Z"/></g>
<g><path style="opacity:1" fill="#201a15" d="M -0.5,28.5 C 1.16667,28.5 2.83333,28.5 4.5,28.5C 4.5,37.5 4.5,46.5 4.5,55.5C 2.83333,55.5 1.16667,55.5 -0.5,55.5C -0.5,46.5 -0.5,37.5 -0.5,28.5 Z"/></g>
<g><path style="opacity:1" fill="#9b816c" d="M 116.5,49.5 C 115.88,52.3404 115.213,55.1737 114.5,58C 111.518,58.498 108.518,58.6646 105.5,58.5C 105.5,56.8333 105.5,55.1667 105.5,53.5C 103.5,53.5 101.5,53.5 99.5,53.5C 104.953,51.6409 110.62,50.3075 116.5,49.5 Z"/></g>
<g><path style="opacity:1" fill="#4e4034" d="M 123.5,50.5 C 124.833,50.5 126.167,50.5 127.5,50.5C 127.5,53.8333 127.5,57.1667 127.5,60.5C 121.642,60.8222 115.975,60.4889 110.5,59.5C 112.833,59.5 115.167,59.5 117.5,59.5C 117.5,56.5 117.5,53.5 117.5,50.5C 119.5,50.5 121.5,50.5 123.5,50.5 Z"/></g>
<g><path style="opacity:1" fill="#826b59" d="M 50.5,28.5 C 49.8725,35.4967 50.8725,42.1634 53.5,48.5C 53.2962,51.5176 52.9629,54.5176 52.5,57.5C 53.5,57.5 54.5,57.5 55.5,57.5C 55.5,58.8333 55.5,60.1667 55.5,61.5C 58.1667,61.5 60.8333,61.5 63.5,61.5C 64.3382,61.8417 64.6716,62.5084 64.5,63.5C 61.5565,62.7924 58.8899,63.6257 56.5,66C 57.7375,66.2321 58.7375,66.7321 59.5,67.5C 57.2821,67.6138 55.2821,68.2804 53.5,69.5C 51.7185,71.357 49.3852,72.357 46.5,72.5C 47.3414,70.6208 47.6747,68.6208 47.5,66.5C 48.2625,65.7321 49.2625,65.2321 50.5,65C 49.2625,64.7679 48.2625,64.2679 47.5,63.5C 48.9778,63.762 50.3112,63.4287 51.5,62.5C 51.3764,61.8933 51.0431,61.56 50.5,61.5C 49.3673,50.3413 49.3673,39.3413 50.5,28.5 Z"/></g>
<g><path style="opacity:1" fill="#524336" d="M 53.5,48.5 C 55.1414,51.2764 56.6414,54.2764 58,57.5C 60.3108,58.3968 62.1441,59.7301 63.5,61.5C 60.8333,61.5 58.1667,61.5 55.5,61.5C 55.5,60.1667 55.5,58.8333 55.5,57.5C 54.5,57.5 53.5,57.5 52.5,57.5C 52.9629,54.5176 53.2962,51.5176 53.5,48.5 Z"/></g>
<g><path style="opacity:1" fill="#7a6351" d="M 116.5,49.5 C 119.059,49.1984 121.393,49.5318 123.5,50.5C 121.5,50.5 119.5,50.5 117.5,50.5C 117.5,53.5 117.5,56.5 117.5,59.5C 115.167,59.5 112.833,59.5 110.5,59.5C 106.167,59.5 101.833,59.5 97.5,59.5C 96.6314,57.283 96.298,54.9496 96.5,52.5C 96.8333,52.5 97.1667,52.5 97.5,52.5C 97.8417,53.3382 98.5084,53.6716 99.5,53.5C 101.5,53.5 103.5,53.5 105.5,53.5C 105.5,55.1667 105.5,56.8333 105.5,58.5C 108.518,58.6646 111.518,58.498 114.5,58C 115.213,55.1737 115.88,52.3404 116.5,49.5 Z"/></g>
<g><path style="opacity:1" fill="#2f261f" d="M 92.5,15.5 C 93.1667,17.8333 93.8333,20.1667 94.5,22.5C 95.5,22.5 96.5,22.5 97.5,22.5C 97.5,24.8333 97.5,27.1667 97.5,29.5C 96.3249,28.0262 95.3249,26.3596 94.5,24.5C 93.1667,29.5 93.1667,34.5 94.5,39.5C 95.2508,38.624 95.7508,37.624 96,36.5C 96.4994,41.8229 96.666,47.1563 96.5,52.5C 96.298,54.9496 96.6314,57.283 97.5,59.5C 94.4816,59.3354 91.4816,59.502 88.5,60C 90.5,60.8333 92.5,61.6667 94.5,62.5C 93.2713,63.2811 91.938,63.7811 90.5,64C 91.4158,64.2784 92.0825,64.7784 92.5,65.5C 91.5318,67.6074 91.1984,69.9407 91.5,72.5C 87.6079,70.8599 83.6079,69.5265 79.5,68.5C 80.8333,67.1667 82.1667,65.8333 83.5,64.5C 83.448,62.0971 83.7814,59.7638 84.5,57.5C 85.4849,53.3656 85.8182,49.0323 85.5,44.5C 85.2852,42.8212 85.9519,41.8212 87.5,41.5C 87.2256,46.263 87.559,50.9296 88.5,55.5C 88.5,56.5 88.5,57.5 88.5,58.5C 90.1667,58.5 91.8333,58.5 93.5,58.5C 93.5,57.1667 93.5,55.8333 93.5,54.5C 93.5945,46.953 92.9278,39.6197 91.5,32.5C 91.5,32.1667 91.5,31.8333 91.5,31.5C 91.2941,27.1018 91.6274,22.7685 92.5,18.5C 92.5,17.5 92.5,16.5 92.5,15.5 Z"/></g>
<g><path style="opacity:1" fill="#8c7562" d="M 93.5,54.5 C 93.5,55.8333 93.5,57.1667 93.5,58.5C 91.8333,58.5 90.1667,58.5 88.5,58.5C 88.5,57.5 88.5,56.5 88.5,55.5C 90.2915,55.634 91.9582,55.3007 93.5,54.5 Z"/></g>
<g><path style="opacity:1" fill="#f0ebe8" d="M 33.5,62.5 C 38.1811,62.6686 42.8478,63.0019 47.5,63.5C 48.2625,64.2679 49.2625,64.7679 50.5,65C 49.2625,65.2321 48.2625,65.7321 47.5,66.5C 41.6657,67.0449 35.999,68.0449 30.5,69.5C 28.5,69.5 26.5,69.5 24.5,69.5C 24.5,67.1667 24.5,64.8333 24.5,62.5C 27.5,62.5 30.5,62.5 33.5,62.5 Z"/></g>
<g><path style="opacity:1" fill="#554538" d="M 53.5,69.5 C 51.9582,70.3007 50.2915,70.634 48.5,70.5C 48.5,69.1667 48.5,67.8333 48.5,66.5C 51.766,66.5674 53.266,64.9008 53,61.5C 53.9416,64.2712 54.1083,66.9379 53.5,69.5 Z"/></g>
<g><path style="opacity:1" fill="#1e1814" d="M 97.5,59.5 C 101.833,59.5 106.167,59.5 110.5,59.5C 115.975,60.4889 121.642,60.8222 127.5,60.5C 127.5,62.5 127.5,64.5 127.5,66.5C 124.926,68.0766 122.593,67.7433 120.5,65.5C 118.674,65.9202 116.674,65.9202 114.5,65.5C 112.167,65.5 109.833,65.5 107.5,65.5C 102.857,65.3927 98.5238,65.3927 94.5,65.5C 93.8333,65.5 93.1667,65.5 92.5,65.5C 92.0825,64.7784 91.4158,64.2784 90.5,64C 91.938,63.7811 93.2713,63.2811 94.5,62.5C 92.5,61.6667 90.5,60.8333 88.5,60C 91.4816,59.502 94.4816,59.3354 97.5,59.5 Z"/></g>
<g><path style="opacity:1" fill="#15110e" d="M 83.5,64.5 C 82.1667,65.8333 80.8333,67.1667 79.5,68.5C 78.8333,68.1667 78.1667,67.8333 77.5,67.5C 76.8333,67.8333 76.1667,68.1667 75.5,68.5C 73.7868,67.3646 73.1201,65.698 73.5,63.5C 76.8333,63.8333 80.1667,64.1667 83.5,64.5 Z"/></g>
<g><path style="opacity:1" fill="#9b836f" d="M 84.5,57.5 C 83.7814,59.7638 83.448,62.0971 83.5,64.5C 80.1667,64.1667 76.8333,63.8333 73.5,63.5C 73.1201,65.698 73.7868,67.3646 75.5,68.5C 74.8333,69.1667 74.1667,69.8333 73.5,70.5C 68.4052,71.0903 63.7385,70.0903 59.5,67.5C 58.7375,66.7321 57.7375,66.2321 56.5,66C 58.8899,63.6257 61.5565,62.7924 64.5,63.5C 65.1499,63.8039 65.8165,64.1373 66.5,64.5C 67.8333,62.8333 69.1667,61.1667 70.5,59.5C 71.086,59.7093 71.586,60.0426 72,60.5C 72.2784,59.5842 72.7784,58.9175 73.5,58.5C 73.56,59.0431 73.8933,59.3764 74.5,59.5C 77.7079,58.198 81.0412,57.5313 84.5,57.5 Z"/></g>
<g><path style="opacity:1" fill="#d2c6bd" d="M 33.5,62.5 C 30.5,62.5 27.5,62.5 24.5,62.5C 24.5,64.8333 24.5,67.1667 24.5,69.5C 26.5,69.5 28.5,69.5 30.5,69.5C 29.2196,70.9313 27.5529,71.5979 25.5,71.5C 25.5,73.1667 25.5,74.8333 25.5,76.5C 28.7216,76.1081 31.7216,76.6081 34.5,78C 30.5138,78.4988 26.5138,78.6655 22.5,78.5C 21.7803,72.8623 21.447,67.1956 21.5,61.5C 25.7016,61.1832 29.7016,61.5166 33.5,62.5 Z"/></g>
<g><path style="opacity:1" fill="#b6a293" d="M 92.5,65.5 C 93.1667,65.5 93.8333,65.5 94.5,65.5C 94.5,67.1667 94.5,68.8333 94.5,70.5C 95.675,70.281 96.675,70.6143 97.5,71.5C 95.604,72.4656 93.604,72.7989 91.5,72.5C 91.1984,69.9407 91.5318,67.6074 92.5,65.5 Z"/></g>
<g><path style="opacity:1" fill="#a18875" d="M 47.5,66.5 C 47.6747,68.6208 47.3414,70.6208 46.5,72.5C 39.2546,72.3169 34.9213,75.6503 33.5,82.5C 33.5,82.1667 33.5,81.8333 33.5,81.5C 30.1091,79.8746 26.4425,78.8746 22.5,78.5C 26.5138,78.6655 30.5138,78.4988 34.5,78C 31.7216,76.6081 28.7216,76.1081 25.5,76.5C 25.5,74.8333 25.5,73.1667 25.5,71.5C 27.5529,71.5979 29.2196,70.9313 30.5,69.5C 35.999,68.0449 41.6657,67.0449 47.5,66.5 Z"/></g>
<g><path style="opacity:1" fill="#ac9684" d="M 77.5,67.5 C 78.1667,67.8333 78.8333,68.1667 79.5,68.5C 83.6079,69.5265 87.6079,70.8599 91.5,72.5C 96.4208,72.8616 101.087,73.8616 105.5,75.5C 102.167,75.5 98.8333,75.5 95.5,75.5C 94.4341,74.3079 93.6008,74.6412 93,76.5C 90.7273,73.196 87.5606,71.696 83.5,72C 80.8233,71.1864 78.8233,69.6864 77.5,67.5 Z"/></g>
<g><path style="opacity:1" fill="#524337" d="M 95.5,75.5 C 98.8333,75.5 102.167,75.5 105.5,75.5C 104.532,78.4453 104.366,81.4453 105,84.5C 105.308,83.6919 105.808,83.0253 106.5,82.5C 107.711,83.2739 107.711,84.1072 106.5,85C 114.834,85.5205 115.167,86.1872 107.5,87C 107.833,88.6667 108.167,90.3333 108.5,92C 107.563,92.6917 106.897,92.525 106.5,91.5C 106.737,90.209 106.404,89.209 105.5,88.5C 103.709,87.6087 101.876,86.6087 100,85.5C 99.6667,85.8333 99.3333,86.1667 99,86.5C 100.283,83.7576 100.616,80.7576 100,77.5C 99,82.8333 98,82.8333 97,77.5C 96.51,78.7932 96.3433,80.1266 96.5,81.5C 95.6942,80.0028 95.0276,78.3361 94.5,76.5C 94.6236,75.8933 94.9569,75.56 95.5,75.5 Z"/></g>
<g><path style="opacity:1" fill="#382e25" d="M 107.5,65.5 C 108.209,66.404 109.209,66.7373 110.5,66.5C 110.649,67.552 110.483,68.552 110,69.5C 106.927,68.3832 103.76,68.2165 100.5,69C 104.824,69.8695 109.158,70.7029 113.5,71.5C 111.784,71.9972 110.117,72.3306 108.5,72.5C 114.014,73.2071 119.681,73.2071 125.5,72.5C 122.215,71.6764 118.882,71.1764 115.5,71C 117.5,70.6667 119.5,70.3333 121.5,70C 118.118,69.8236 114.785,69.3236 111.5,68.5C 112.993,67.8589 113.993,66.8589 114.5,65.5C 116.674,65.9202 118.674,65.9202 120.5,65.5C 122.593,67.7433 124.926,68.0766 127.5,66.5C 127.5,69.5 127.5,72.5 127.5,75.5C 123.881,74.7564 120.215,74.423 116.5,74.5C 117.283,78.1458 117.45,81.8125 117,85.5C 116.29,86.9733 115.124,87.6399 113.5,87.5C 113.768,89.099 113.434,90.4324 112.5,91.5C 111.057,92.3351 110.057,93.6684 109.5,95.5C 108.252,94.9598 107.085,94.2931 106,93.5C 105.308,92.5632 105.475,91.8966 106.5,91.5C 106.897,92.525 107.563,92.6917 108.5,92C 108.167,90.3333 107.833,88.6667 107.5,87C 115.167,86.1872 114.834,85.5205 106.5,85C 107.711,84.1072 107.711,83.2739 106.5,82.5C 105.808,83.0253 105.308,83.6919 105,84.5C 104.366,81.4453 104.532,78.4453 105.5,75.5C 101.087,73.8616 96.4208,72.8616 91.5,72.5C 93.604,72.7989 95.604,72.4656 97.5,71.5C 96.675,70.6143 95.675,70.281 94.5,70.5C 94.5,68.8333 94.5,67.1667 94.5,65.5C 98.5238,65.3927 102.857,65.3927 107.5,65.5 Z"/></g>
<g><path style="opacity:1" fill="#725d4d" d="M 107.5,65.5 C 109.833,65.5 112.167,65.5 114.5,65.5C 113.993,66.8589 112.993,67.8589 111.5,68.5C 114.785,69.3236 118.118,69.8236 121.5,70C 119.5,70.3333 117.5,70.6667 115.5,71C 118.882,71.1764 122.215,71.6764 125.5,72.5C 119.681,73.2071 114.014,73.2071 108.5,72.5C 110.117,72.3306 111.784,71.9972 113.5,71.5C 109.158,70.7029 104.824,69.8695 100.5,69C 103.76,68.2165 106.927,68.3832 110,69.5C 110.483,68.552 110.649,67.552 110.5,66.5C 109.209,66.7373 108.209,66.404 107.5,65.5 Z"/></g>
<g><path style="opacity:1" fill="#56463a" d="M 127.5,75.5 C 127.5,80.5 127.5,85.5 127.5,90.5C 124.476,90.0533 124.143,89.22 126.5,88C 122.348,86.557 118.348,87.2237 114.5,90C 115.756,90.4169 116.423,91.2502 116.5,92.5C 115.4,94.2774 114.566,96.2774 114,98.5C 113.71,96.0796 113.21,93.7463 112.5,91.5C 113.434,90.4324 113.768,89.099 113.5,87.5C 115.124,87.6399 116.29,86.9733 117,85.5C 117.45,81.8125 117.283,78.1458 116.5,74.5C 120.215,74.423 123.881,74.7564 127.5,75.5 Z"/></g>
<g><path style="opacity:1" fill="#524337" d="M 59.5,67.5 C 63.7385,70.0903 68.4052,71.0903 73.5,70.5C 74.6828,71.5045 76.0161,72.3378 77.5,73C 74.4484,76.1862 70.7817,78.3529 66.5,79.5C 69.0346,80.2533 71.5346,79.92 74,78.5C 74.6667,79.1667 75.3333,79.8333 76,80.5C 77.3876,79.4464 78.8876,79.2797 80.5,80C 81.4677,82.5015 83.6344,84.3348 87,85.5C 87.425,89.7884 88.5917,94.1217 90.5,98.5C 89.4014,101.296 88.4014,104.129 87.5,107C 90.6732,113.454 92.0066,120.288 91.5,127.5C 88.8333,127.5 86.1667,127.5 83.5,127.5C 84.6817,125.439 84.0151,123.939 81.5,123C 81.6916,119.241 81.6916,115.575 81.5,112C 79.3697,110.436 77.3697,110.436 75.5,112C 76.6537,112.914 76.487,113.747 75,114.5C 74.6667,113.833 74.3333,113.167 74,112.5C 73.5,113.667 72.6667,114.5 71.5,115C 71.8333,115.333 72.1667,115.667 72.5,116C 71.175,115.852 70.0084,116.018 69,116.5C 67.6667,114.5 66.3333,112.5 65,110.5C 64.2825,111.451 63.4491,111.617 62.5,111C 63.5171,109.951 63.6838,108.784 63,107.5C 62.0862,108.654 61.2529,108.487 60.5,107C 61.8333,105.667 61.8333,104.333 60.5,103C 61.1667,102.667 61.8333,102.333 62.5,102C 60.9559,101.71 59.6226,101.044 58.5,100C 60.797,98.8403 60.4637,97.8403 57.5,97C 57.8333,96.6667 58.1667,96.3333 58.5,96C 57.3271,93.7403 55.9938,91.5737 54.5,89.5C 55.2624,89.0894 56.2624,88.9227 57.5,89C 57.1667,88.6667 56.8333,88.3333 56.5,88C 54.4432,87.6948 52.4432,87.6948 50.5,88C 47.6587,86.2014 44.8253,83.7014 42,80.5C 40.4773,82.6201 38.6439,82.9535 36.5,81.5C 34.2505,84.6655 32.5838,87.9988 31.5,91.5C 31.4054,88.3033 32.0721,85.3033 33.5,82.5C 34.9213,75.6503 39.2546,72.3169 46.5,72.5C 49.3852,72.357 51.7185,71.357 53.5,69.5C 55.2821,68.2804 57.2821,67.6138 59.5,67.5 Z"/></g>
<g><path style="opacity:1" fill="#2f261f" d="M 105.5,88.5 C 104.732,89.2625 104.232,90.2625 104,91.5C 103.517,90.552 103.351,89.552 103.5,88.5C 102.5,88.5 101.5,88.5 100.5,88.5C 100.48,90.143 101.147,91.4763 102.5,92.5C 100.671,93.2824 99.1707,92.6157 98,90.5C 97.51,89.2068 97.3433,87.8734 97.5,86.5C 96.962,84.8828 96.6287,83.2161 96.5,81.5C 96.3433,80.1266 96.51,78.7932 97,77.5C 98,82.8333 99,82.8333 100,77.5C 100.616,80.7576 100.283,83.7576 99,86.5C 99.3333,86.1667 99.6667,85.8333 100,85.5C 101.876,86.6087 103.709,87.6087 105.5,88.5 Z"/></g>
<g><path style="opacity:1" fill="#382e25" d="M 127.5,90.5 C 127.5,96.8333 127.5,103.167 127.5,109.5C 121.616,108.95 115.782,108.284 110,107.5C 109.617,108.056 109.117,108.389 108.5,108.5C 108.5,107.833 108.5,107.167 108.5,106.5C 109.833,106.5 111.167,106.5 112.5,106.5C 112.5,105.167 112.5,103.833 112.5,102.5C 111.5,102.5 110.5,102.5 109.5,102.5C 109.5,101.5 109.5,100.5 109.5,99.5C 108.209,99.7373 107.209,99.404 106.5,98.5C 107.833,98.5 109.167,98.5 110.5,98.5C 110.5,99.5 110.5,100.5 110.5,101.5C 115.034,99.4613 119.7,99.1279 124.5,100.5C 125.833,99.1667 125.833,97.8333 124.5,96.5C 122.88,99.0578 121.38,99.0578 120,96.5C 119.29,97.9733 118.124,98.6399 116.5,98.5C 116.5,97.5 116.5,96.5 116.5,95.5C 119.813,94.9552 123.146,94.4552 126.5,94C 125.397,91.0311 124.064,90.8645 122.5,93.5C 121.833,92.5 121.167,91.5 120.5,90.5C 119.476,91.8532 118.143,92.5198 116.5,92.5C 116.423,91.2502 115.756,90.4169 114.5,90C 118.348,87.2237 122.348,86.557 126.5,88C 124.143,89.22 124.476,90.0533 127.5,90.5 Z"/></g>
<g><path style="opacity:1" fill="#1d1814" d="M -0.5,60.5 C 5.75374,60.7799 11.9204,61.4465 18,62.5C 18.1667,65.1667 18.3333,67.8333 18.5,70.5C 15.3697,80.4784 14.703,90.8118 16.5,101.5C 16.1667,101.5 15.8333,101.5 15.5,101.5C 14.3894,100.357 13.2228,99.357 12,98.5C 11.7216,99.4158 11.2216,100.082 10.5,100.5C 7.03875,98.9089 3.37208,98.2422 -0.5,98.5C -0.5,85.8333 -0.5,73.1667 -0.5,60.5 Z"/></g>
<g><path style="opacity:1" fill="#322921" d="M 18.5,40.5 C 19.1174,40.6107 19.6174,40.944 20,41.5C 20.1728,47.3482 20.6728,53.0149 21.5,58.5C 22.209,59.404 23.209,59.7373 24.5,59.5C 33.1615,60.2108 41.8282,60.8775 50.5,61.5C 51.0431,61.56 51.3764,61.8933 51.5,62.5C 50.3112,63.4287 48.9778,63.762 47.5,63.5C 42.8478,63.0019 38.1811,62.6686 33.5,62.5C 29.7016,61.5166 25.7016,61.1832 21.5,61.5C 21.447,67.1956 21.7803,72.8623 22.5,78.5C 26.4425,78.8746 30.1091,79.8746 33.5,81.5C 28.5,81.5 23.5,81.5 18.5,81.5C 18.5,88.5 18.5,95.5 18.5,102.5C 21.9387,102.747 25.272,102.414 28.5,101.5C 30.924,101.808 33.2573,101.474 35.5,100.5C 32.9446,97.2287 32.9446,93.8953 35.5,90.5C 37.5529,92.7812 39.2195,95.2812 40.5,98C 38.9865,100.916 39.3199,103.582 41.5,106C 41.6032,109.513 41.1032,113.346 40,117.5C 39.6667,116.833 39.3333,116.167 39,115.5C 37.107,116.965 35.4404,118.631 34,120.5C 32.6974,120.022 31.5307,119.355 30.5,118.5C 29.2235,116.05 27.7235,113.717 26,111.5C 25.6948,109.443 25.6948,107.443 26,105.5C 25.4387,106.022 24.772,106.355 24,106.5C 21.5667,105.521 19.0667,104.855 16.5,104.5C 16.5,103.5 16.5,102.5 16.5,101.5C 14.703,90.8118 15.3697,80.4784 18.5,70.5C 18.3333,67.8333 18.1667,65.1667 18,62.5C 11.9204,61.4465 5.75374,60.7799 -0.5,60.5C -0.5,59.5 -0.5,58.5 -0.5,57.5C 5.8111,58.4269 12.1444,58.5935 18.5,58C 17.1747,52.0677 17.1747,46.2343 18.5,40.5 Z"/></g>
<g><path style="opacity:1" fill="#43362c" d="M 83.5,127.5 C 69.5,127.5 55.5,127.5 41.5,127.5C 41.7886,124.351 41.2886,121.351 40,118.5C 38.2389,121.411 36.7389,124.411 35.5,127.5C 32.8333,127.5 30.1667,127.5 27.5,127.5C 30.0762,125.112 31.0762,122.112 30.5,118.5C 31.5307,119.355 32.6974,120.022 34,120.5C 35.4404,118.631 37.107,116.965 39,115.5C 39.3333,116.167 39.6667,116.833 40,117.5C 41.1032,113.346 41.6032,109.513 41.5,106C 39.3199,103.582 38.9865,100.916 40.5,98C 39.2195,95.2812 37.5529,92.7812 35.5,90.5C 32.9446,93.8953 32.9446,97.2287 35.5,100.5C 33.2573,101.474 30.924,101.808 28.5,101.5C 29.8991,98.3012 30.8991,94.9679 31.5,91.5C 32.5838,87.9988 34.2505,84.6655 36.5,81.5C 38.6439,82.9535 40.4773,82.6201 42,80.5C 44.8253,83.7014 47.6587,86.2014 50.5,88C 52.4432,87.6948 54.4432,87.6948 56.5,88C 56.8333,88.3333 57.1667,88.6667 57.5,89C 56.2624,88.9227 55.2624,89.0894 54.5,89.5C 55.9938,91.5737 57.3271,93.7403 58.5,96C 58.1667,96.3333 57.8333,96.6667 57.5,97C 60.4637,97.8403 60.797,98.8403 58.5,100C 59.6226,101.044 60.9559,101.71 62.5,102C 61.8333,102.333 61.1667,102.667 60.5,103C 61.8333,104.333 61.8333,105.667 60.5,107C 61.2529,108.487 62.0862,108.654 63,107.5C 63.6838,108.784 63.5171,109.951 62.5,111C 63.4491,111.617 64.2825,111.451 65,110.5C 66.3333,112.5 67.6667,114.5 69,116.5C 70.0084,116.018 71.175,115.852 72.5,116C 72.1667,115.667 71.8333,115.333 71.5,115C 72.6667,114.5 73.5,113.667 74,112.5C 74.3333,113.167 74.6667,113.833 75,114.5C 76.487,113.747 76.6537,112.914 75.5,112C 77.3697,110.436 79.3697,110.436 81.5,112C 81.6916,115.575 81.6916,119.241 81.5,123C 84.0151,123.939 84.6817,125.439 83.5,127.5 Z"/></g>
<g><path style="opacity:1" fill="#f6f3f1" d="M 33.5,81.5 C 33.5,81.8333 33.5,82.1667 33.5,82.5C 32.0721,85.3033 31.4054,88.3033 31.5,91.5C 30.8991,94.9679 29.8991,98.3012 28.5,101.5C 25.272,102.414 21.9387,102.747 18.5,102.5C 18.5,95.5 18.5,88.5 18.5,81.5C 23.5,81.5 28.5,81.5 33.5,81.5 Z"/></g>
<g><path style="opacity:1" fill="#665343" d="M 77.5,67.5 C 78.8233,69.6864 80.8233,71.1864 83.5,72C 87.5606,71.696 90.7273,73.196 93,76.5C 93.6008,74.6412 94.4341,74.3079 95.5,75.5C 94.9569,75.56 94.6236,75.8933 94.5,76.5C 95.0276,78.3361 95.6942,80.0028 96.5,81.5C 96.6287,83.2161 96.962,84.8828 97.5,86.5C 96.8614,87.0968 96.528,87.9302 96.5,89C 97.0539,91.8236 97.5539,94.657 98,97.5C 98.2004,99.3197 99.0337,100.653 100.5,101.5C 100.365,103.554 101.032,105.221 102.5,106.5C 100.955,107.23 100.122,108.563 100,110.5C 98.6319,109.007 98.4652,107.507 99.5,106C 98.3333,105.5 97.5,104.667 97,103.5C 96.5357,104.094 96.369,104.761 96.5,105.5C 95.5041,105.586 94.6708,105.252 94,104.5C 94.0468,108.742 93.8802,112.909 93.5,117C 93.093,120.759 94.7597,122.259 98.5,121.5C 97.6586,123.379 97.3253,125.379 97.5,127.5C 95.5,127.5 93.5,127.5 91.5,127.5C 92.0066,120.288 90.6732,113.454 87.5,107C 88.4014,104.129 89.4014,101.296 90.5,98.5C 88.5917,94.1217 87.425,89.7884 87,85.5C 83.6344,84.3348 81.4677,82.5015 80.5,80C 78.8876,79.2797 77.3876,79.4464 76,80.5C 75.3333,79.8333 74.6667,79.1667 74,78.5C 71.5346,79.92 69.0346,80.2533 66.5,79.5C 70.7817,78.3529 74.4484,76.1862 77.5,73C 76.0161,72.3378 74.6828,71.5045 73.5,70.5C 74.1667,69.8333 74.8333,69.1667 75.5,68.5C 76.1667,68.1667 76.8333,67.8333 77.5,67.5 Z"/></g>
<g><path style="opacity:1" fill="#e4dcd6" d="M -0.5,99.5 C -0.5,99.1667 -0.5,98.8333 -0.5,98.5C 3.37208,98.2422 7.03875,98.9089 10.5,100.5C 10.631,101.239 10.4643,101.906 10,102.5C 6.47983,101.563 2.97983,100.563 -0.5,99.5 Z"/></g>
<g><path style="opacity:1" fill="#9e8876" d="M 97.5,86.5 C 97.3433,87.8734 97.51,89.2068 98,90.5C 99.1707,92.6157 100.671,93.2824 102.5,92.5C 101.147,91.4763 100.48,90.143 100.5,88.5C 101.5,88.5 102.5,88.5 103.5,88.5C 103.351,89.552 103.517,90.552 104,91.5C 104.232,90.2625 104.732,89.2625 105.5,88.5C 106.404,89.209 106.737,90.209 106.5,91.5C 105.475,91.8966 105.308,92.5632 106,93.5C 107.085,94.2931 108.252,94.9598 109.5,95.5C 110.057,93.6684 111.057,92.3351 112.5,91.5C 113.21,93.7463 113.71,96.0796 114,98.5C 114.566,96.2774 115.4,94.2774 116.5,92.5C 118.143,92.5198 119.476,91.8532 120.5,90.5C 121.167,91.5 121.833,92.5 122.5,93.5C 124.064,90.8645 125.397,91.0311 126.5,94C 123.146,94.4552 119.813,94.9552 116.5,95.5C 116.5,96.5 116.5,97.5 116.5,98.5C 118.124,98.6399 119.29,97.9733 120,96.5C 121.38,99.0578 122.88,99.0578 124.5,96.5C 125.833,97.8333 125.833,99.1667 124.5,100.5C 119.7,99.1279 115.034,99.4613 110.5,101.5C 110.5,100.5 110.5,99.5 110.5,98.5C 109.167,98.5 107.833,98.5 106.5,98.5C 105.248,99.9678 103.248,100.968 100.5,101.5C 99.0337,100.653 98.2004,99.3197 98,97.5C 97.5539,94.657 97.0539,91.8236 96.5,89C 96.528,87.9302 96.8614,87.0968 97.5,86.5 Z"/></g>
<g><path style="opacity:1" fill="#241d18" d="M 106.5,98.5 C 107.209,99.404 108.209,99.7373 109.5,99.5C 109.5,100.5 109.5,101.5 109.5,102.5C 110.5,102.5 111.5,102.5 112.5,102.5C 112.5,103.833 112.5,105.167 112.5,106.5C 111.167,106.5 109.833,106.5 108.5,106.5C 106.5,106.5 104.5,106.5 102.5,106.5C 101.032,105.221 100.365,103.554 100.5,101.5C 103.248,100.968 105.248,99.9678 106.5,98.5 Z"/></g>
<g><path style="opacity:1" fill="#524337" d="M 15.5,101.5 C 14.8288,102.847 14.8288,104.014 15.5,105C 12.8669,106.689 12.8669,108.189 15.5,109.5C 14.1667,110.5 12.8333,111.5 11.5,112.5C 8.99017,112.927 6.65683,113.593 4.5,114.5C 2.83333,113.833 1.16667,113.167 -0.5,112.5C -0.5,108.167 -0.5,103.833 -0.5,99.5C 2.97983,100.563 6.47983,101.563 10,102.5C 10.4643,101.906 10.631,101.239 10.5,100.5C 11.2216,100.082 11.7216,99.4158 12,98.5C 13.2228,99.357 14.3894,100.357 15.5,101.5 Z"/></g>
<g><path style="opacity:1" fill="#231d19" d="M 23.5,108.5 C 20.0604,112.016 16.0604,113.35 11.5,112.5C 12.8333,111.5 14.1667,110.5 15.5,109.5C 17.5816,109.376 19.0816,108.376 20,106.5C 21.3024,107.085 22.469,107.751 23.5,108.5 Z"/></g>
<g><path style="opacity:1" fill="#332922" d="M 96.5,105.5 C 97.8744,109.791 99.5411,113.958 101.5,118C 101.022,119.642 100.022,120.809 98.5,121.5C 94.7597,122.259 93.093,120.759 93.5,117C 93.8802,112.909 94.0468,108.742 94,104.5C 94.6708,105.252 95.5041,105.586 96.5,105.5 Z"/></g>
<g><path style="opacity:1" fill="#211b16" d="M 127.5,109.5 C 127.5,112.167 127.5,114.833 127.5,117.5C 119.174,117.024 110.84,116.691 102.5,116.5C 102.768,113.881 102.435,111.381 101.5,109C 103.81,108.503 106.143,108.337 108.5,108.5C 109.117,108.389 109.617,108.056 110,107.5C 115.782,108.284 121.616,108.95 127.5,109.5 Z"/></g>
<g><path style="opacity:1" fill="#a58e7b" d="M 23.5,108.5 C 24.6074,111.619 23.274,113.453 19.5,114C 18.7476,114.671 18.4142,115.504 18.5,116.5C 15.2914,116.411 12.1248,116.744 9,117.5C 6.79108,117.443 5.29108,116.443 4.5,114.5C 6.65683,113.593 8.99017,112.927 11.5,112.5C 16.0604,113.35 20.0604,112.016 23.5,108.5 Z"/></g>
<g><path style="opacity:1" fill="#44372d" d="M 102.5,116.5 C 110.84,116.691 119.174,117.024 127.5,117.5C 127.5,118.5 127.5,119.5 127.5,120.5C 119.507,119.668 111.507,118.834 103.5,118C 102.944,117.617 102.611,117.117 102.5,116.5 Z"/></g>
<g><path style="opacity:1" fill="#504235" d="M 4.5,114.5 C 5.29108,116.443 6.79108,117.443 9,117.5C 12.1248,116.744 15.2914,116.411 18.5,116.5C 20.8424,119.771 21.1757,123.438 19.5,127.5C 17.5,127.5 15.5,127.5 13.5,127.5C 13.5,126.167 13.5,124.833 13.5,123.5C 15.5273,123.662 17.5273,123.495 19.5,123C 15.299,122.078 11.299,122.578 7.5,124.5C 6.61432,125.325 6.28099,126.325 6.5,127.5C 5.83333,127.5 5.16667,127.5 4.5,127.5C 5.30043,125.393 5.9671,123.226 6.5,121C 5.58194,118.914 4.91527,116.747 4.5,114.5 Z"/></g>
<g><path style="opacity:1" fill="#796352" d="M 15.5,101.5 C 15.8333,101.5 16.1667,101.5 16.5,101.5C 16.5,102.5 16.5,103.5 16.5,104.5C 19.0667,104.855 21.5667,105.521 24,106.5C 24.772,106.355 25.4387,106.022 26,105.5C 25.6948,107.443 25.6948,109.443 26,111.5C 27.7235,113.717 29.2235,116.05 30.5,118.5C 31.0762,122.112 30.0762,125.112 27.5,127.5C 24.8333,127.5 22.1667,127.5 19.5,127.5C 21.1757,123.438 20.8424,119.771 18.5,116.5C 18.4142,115.504 18.7476,114.671 19.5,114C 23.274,113.453 24.6074,111.619 23.5,108.5C 22.469,107.751 21.3024,107.085 20,106.5C 19.0816,108.376 17.5816,109.376 15.5,109.5C 12.8669,108.189 12.8669,106.689 15.5,105C 14.8288,104.014 14.8288,102.847 15.5,101.5 Z"/></g>
<g><path style="opacity:1" fill="#15110e" d="M -0.5,112.5 C 1.16667,113.167 2.83333,113.833 4.5,114.5C 4.91527,116.747 5.58194,118.914 6.5,121C 5.9671,123.226 5.30043,125.393 4.5,127.5C 2.83333,127.5 1.16667,127.5 -0.5,127.5C -0.5,122.5 -0.5,117.5 -0.5,112.5 Z"/></g>
<g><path style="opacity:1" fill="#8d7561" d="M 102.5,106.5 C 104.5,106.5 106.5,106.5 108.5,106.5C 108.5,107.167 108.5,107.833 108.5,108.5C 106.143,108.337 103.81,108.503 101.5,109C 102.435,111.381 102.768,113.881 102.5,116.5C 102.611,117.117 102.944,117.617 103.5,118C 111.507,118.834 119.507,119.668 127.5,120.5C 127.5,120.833 127.5,121.167 127.5,121.5C 119.445,121.361 111.445,120.694 103.5,119.5C 102.998,123.171 104.498,125.505 108,126.5C 110.478,125.755 112.978,125.089 115.5,124.5C 119.453,125.362 123.453,125.695 127.5,125.5C 127.5,126.167 127.5,126.833 127.5,127.5C 117.5,127.5 107.5,127.5 97.5,127.5C 97.3253,125.379 97.6586,123.379 98.5,121.5C 100.022,120.809 101.022,119.642 101.5,118C 99.5411,113.958 97.8744,109.791 96.5,105.5C 96.369,104.761 96.5357,104.094 97,103.5C 97.5,104.667 98.3333,105.5 99.5,106C 98.4652,107.507 98.6319,109.007 100,110.5C 100.122,108.563 100.955,107.23 102.5,106.5 Z"/></g>
<g><path style="opacity:1" fill="#1c1814" d="M 127.5,121.5 C 127.5,122.833 127.5,124.167 127.5,125.5C 123.453,125.695 119.453,125.362 115.5,124.5C 112.978,125.089 110.478,125.755 108,126.5C 104.498,125.505 102.998,123.171 103.5,119.5C 111.445,120.694 119.445,121.361 127.5,121.5 Z"/></g>
<g><path style="opacity:1" fill="#d9cec5" d="M 41.5,127.5 C 39.5,127.5 37.5,127.5 35.5,127.5C 36.7389,124.411 38.2389,121.411 40,118.5C 41.2886,121.351 41.7886,124.351 41.5,127.5 Z"/></g>
<g><path style="opacity:1" fill="#0f0c0a" d="M 13.5,127.5 C 11.1667,127.5 8.83333,127.5 6.5,127.5C 6.28099,126.325 6.61432,125.325 7.5,124.5C 11.299,122.578 15.299,122.078 19.5,123C 17.5273,123.495 15.5273,123.662 13.5,123.5C 13.5,124.833 13.5,126.167 13.5,127.5 Z"/></g>
</svg>
